<svg xmlns="http://www.w3.org/2000/svg" viewBox="90 160 260 60" preserveAspectRatio="xMidYMid meet">
  <!-- Text-only version of softlogo (red wordmark), squares/icon removed -->
  <g fill="#f84343" fill-opacity="1">
    <g transform="translate(93.793197, 200.35544)"><path d="M 20.25 0 L 1.703125 0 L 1.703125 -27.109375 L 20.1875 -27.109375 L 20.1875 -21.296875 L 7.953125 -21.296875 L 7.953125 -16.515625 L 19.125 -16.515625 L 19.125 -11.09375 L 7.953125 -11.09375 L 7.953125 -5.8125 L 20.25 -5.8125 Z"/></g>
    <g transform="translate(116.947065, 200.35544)"><path d="M 13.84375 -16.015625 L 19.953125 -27.109375 L 26.96875 -27.109375 L 16.875 -10 L 16.875 0 L 10.65625 0 L 10.65625 -10 L 0.609375 -27.109375 L 7.6875 -27.109375 Z"/></g>
    <g transform="translate(146.281806, 200.35544)"><path d="M 19.953125 0 L 1.703125 0 L 1.703125 -27.109375 L 7.953125 -27.109375 L 7.953125 -5.8125 L 19.953125 -5.8125 Z"/></g>
    <g transform="translate(168.466771, 200.35544)"><path d="M 10 -28.984375 C 9.164062 -28.984375 8.453125 -29.195312 7.859375 -29.625 C 7.273438 -30.0625 6.984375 -30.738281 6.984375 -31.65625 C 6.984375 -32.457031 7.265625 -33.085938 7.828125 -33.546875 C 8.398438 -34.015625 9.125 -34.25 10 -34.25 C 10.84375 -34.25 11.546875 -34.015625 12.109375 -33.546875 C 12.679688 -33.085938 12.96875 -32.457031 12.96875 -31.65625 C 12.96875 -30.738281 12.671875 -30.0625 12.078125 -29.625 C 11.492188 -29.195312 10.800781 -28.984375 10 -28.984375 Z M 17.140625 -28.984375 C 16.335938 -28.984375 15.632812 -29.195312 15.03125 -29.625 C 14.4375 -30.0625 14.140625 -30.738281 14.140625 -31.65625 C 14.140625 -32.457031 14.425781 -33.085938 15 -33.546875 C 15.582031 -34.015625 16.296875 -34.25 17.140625 -34.25 C 18.015625 -34.25 18.734375 -34.015625 19.296875 -33.546875 C 19.867188 -33.085938 20.15625 -32.457031 20.15625 -31.65625 C 20.15625 -30.738281 19.859375 -30.0625 19.265625 -29.625 C 18.671875 -29.195312 17.960938 -28.984375 17.140625 -28.984375 Z M 13.328125 0.4375 C 10.566406 0.4375 8.328125 -0.0078125 6.609375 -0.90625 C 4.898438 -1.8125 3.65625 -3.085938 2.875 -4.734375 C 2.09375 -6.390625 1.703125 -8.34375 1.703125 -10.59375 L 1.703125 -27.109375 L 7.953125 -27.109375 L 7.953125 -12.171875 C 7.953125 -10.691406 8.109375 -9.46875 8.421875 -8.5 C 8.734375 -7.53125 9.28125 -6.804688 10.0625 -6.328125 C 10.84375 -5.847656 11.929688 -5.609375 13.328125 -5.609375 C 14.734375 -5.609375 15.828125 -5.847656 16.609375 -6.328125 C 17.390625 -6.804688 17.929688 -7.53125 18.234375 -8.5 C 18.535156 -9.46875 18.6875 -10.691406 18.6875 -12.171875 L 18.6875 -27.109375 L 24.9375 -27.109375 L 24.9375 -10.59375 C 24.9375 -8.34375 24.546875 -6.390625 23.765625 -4.734375 C 22.984375 -3.085938 21.738281 -1.8125 20.03125 -0.90625 C 18.332031 -0.0078125 16.097656 0.4375 13.328125 0.4375 Z"/></g>
    <g transform="translate(196.665561, 200.35544)"><path d="M 19.953125 0 L 1.703125 0 L 1.703125 -27.109375 L 7.953125 -27.109375 L 7.953125 -5.8125 L 19.953125 -5.8125 Z"/></g>
    <g transform="translate(225.8673, 200.35544)"><path d="M 11.5 0.4375 C 9.425781 0.4375 7.46875 0.21875 5.625 -0.21875 C 3.789062 -0.65625 2.257812 -1.25 1.03125 -2 L 3.4375 -7.21875 C 4.414062 -6.550781 5.59375 -6.03125 6.96875 -5.65625 C 8.34375 -5.289062 9.773438 -5.109375 11.265625 -5.109375 C 12.734375 -5.109375 13.90625 -5.320312 14.78125 -5.75 C 15.664062 -6.175781 16.109375 -6.800781 16.109375 -7.625 L 16.109375 -7.6875 C 16.109375 -8.175781 15.929688 -8.585938 15.578125 -8.921875 C 15.222656 -9.253906 14.613281 -9.585938 13.75 -9.921875 C 12.894531 -10.253906 11.707031 -10.632812 10.1875 -11.0625 C 8.207031 -11.644531 6.617188 -12.300781 5.421875 -13.03125 C 4.234375 -13.769531 3.378906 -14.671875 2.859375 -15.734375 C 2.335938 -16.804688 2.078125 -18.113281 2.078125 -19.65625 L 2.078125 -19.71875 C 2.078125 -21.300781 2.484375 -22.679688 3.296875 -23.859375 C 4.109375 -25.046875 5.28125 -25.960938 6.8125 -26.609375 C 8.351562 -27.253906 10.191406 -27.578125 12.328125 -27.578125 C 14.179688 -27.578125 15.957031 -27.367188 17.65625 -26.953125 C 19.363281 -26.546875 20.820312 -25.960938 22.03125 -25.203125 L 19.65625 -20.015625 C 18.675781 -20.660156 17.535156 -21.15625 16.234375 -21.5 C 14.941406 -21.851562 13.640625 -22.03125 12.328125 -22.03125 C 10.953125 -22.03125 9.929688 -21.820312 9.265625 -21.40625 C 8.609375 -20.988281 8.28125 -20.457031 8.28125 -19.8125 L 8.28125 -19.78125 C 8.28125 -19.050781 8.632812 -18.46875 9.34375 -18.03125 C 10.0625 -17.59375 11.25 -17.117188 12.90625 -16.609375 C 15.238281 -15.921875 17.09375 -15.195312 18.46875 -14.4375 C 19.851562 -13.675781 20.851562 -12.769531 21.46875 -11.71875 C 22.082031 -10.675781 22.390625 -9.351562 22.390625 -7.75 L 22.390625 -7.6875 C 22.390625 -5.101562 21.421875 -3.101562 19.484375 -1.6875 C 17.546875 -0.269531 14.882812 0.4375 11.5 0.4375 Z"/></g>
    <g transform="translate(251.159416, 200.35544)"><path d="M 15.609375 0.4375 C 13.472656 0.4375 11.53125 0.078125 9.78125 -0.640625 C 8.03125 -1.367188 6.519531 -2.375 5.25 -3.65625 C 3.976562 -4.9375 3 -6.421875 2.3125 -8.109375 C 1.632812 -9.804688 1.296875 -11.625 1.296875 -13.5625 L 1.296875 -13.640625 C 1.296875 -15.597656 1.632812 -17.414062 2.3125 -19.09375 C 3 -20.78125 3.972656 -22.257812 5.234375 -23.53125 C 6.492188 -24.800781 8.003906 -25.789062 9.765625 -26.5 C 11.523438 -27.21875 13.472656 -27.578125 15.609375 -27.578125 C 17.742188 -27.578125 19.679688 -27.21875 21.421875 -26.5 C 23.160156 -25.789062 24.660156 -24.800781 25.921875 -23.53125 C 27.179688 -22.257812 28.148438 -20.78125 28.828125 -19.09375 C 29.503906 -17.414062 29.84375 -15.597656 29.84375 -13.640625 L 29.84375 -13.5625 C 29.84375 -11.625 29.503906 -9.804688 28.828125 -8.109375 C 28.148438 -6.421875 27.179688 -4.9375 25.921875 -3.65625 C 24.660156 -2.375 23.15625 -1.367188 21.40625 -0.640625 C 19.65625 0.078125 17.722656 0.4375 15.609375 0.4375 Z M 15.609375 -5.375 C 17.097656 -5.375 18.4375 -5.710938 19.625 -6.390625 C 20.820312 -7.078125 21.765625 -8.035156 22.453125 -9.265625 C 23.148438 -10.503906 23.5 -11.9375 23.5 -13.5625 L 23.5 -13.640625 C 23.5 -15.285156 23.148438 -16.710938 22.453125 -17.921875 C 21.765625 -19.140625 20.820312 -20.082031 19.625 -20.75 C 18.4375 -21.414062 17.097656 -21.75 15.609375 -21.75 C 14.085938 -21.75 12.722656 -21.414062 11.515625 -20.75 C 10.316406 -20.082031 9.375 -19.140625 8.6875 -17.921875 C 8 -16.710938 7.65625 -15.285156 7.65625 -13.640625 L 7.65625 -13.5625 C 7.65625 -11.9375 8 -10.503906 8.6875 -9.265625 C 9.375 -8.035156 10.316406 -7.078125 11.515625 -6.390625 C 12.722656 -5.710938 14.085938 -5.375 15.609375 -5.375 Z"/></g>
    <g transform="translate(283.868574, 200.35544)"><path d="M 7.953125 0 L 1.703125 0 L 1.703125 -27.109375 L 20.125 -27.109375 L 20.125 -21.296875 L 7.953125 -21.296875 L 7.953125 -16.515625 L 18.984375 -16.515625 L 18.984375 -11.09375 L 7.953125 -11.09375 Z"/></g>
    <g transform="translate(306.621521, 200.35544)"><path d="M 15.3125 0 L 9.09375 0 L 9.09375 -21.296875 L 0.671875 -21.296875 L 0.671875 -27.109375 L 23.734375 -27.109375 L 23.734375 -21.296875 L 15.3125 -21.296875 Z"/></g>
  </g>
</svg>
